<svg xmlns="http://www.w3.org/2000/svg" xmlns:xlink="http://www.w3.org/1999/xlink" version="1.1" x="0px" y="0px" viewBox="5 5 90 90" enable-background="new 5 5 90 90" xml:space="preserve">
 <g><g><path d="M43.063,18.567c0-1.75,0.437-3.834,0.437-5.073c0-0.12-0.603-0.145-1.333-0.131H35.5    c-0.728-0.014-1.332,0.012-1.332,0.131c0,1.239,0.202,3.324,0.202,5.073H43.063z M48.04,42.098c0-6.282-5.01-6.337-5.01-7.853    c0-3.123,0-8.927,0-13.954h-9.018c0,5.026,0,10.83,0,13.954c0,1.516-6.012,1.571-6.012,7.853c0,9.96,0,39.842,0,39.842    c0,1.997,0.826,4.701,1.847,4.701h17.404c1.02,0,0.789-2.704,0.789-4.701C48.04,81.94,48.04,52.059,48.04,42.098z M71.884,83.08    l-0.076,0.015c-0.049,0.008-6.317,1.029-7.479-1.572c-0.185-0.414-2.277-8.843-1.938-11.945c0.32-2.93,4.696-3.891,5.546-10.249    c0.912-6.822-4.351-14.97-4.351-14.97l-5.665,1.082l-1.164,0.223l-1.165,0.223l-5.665,1.082c0,0-1.901,9.558,1.445,15.564    c3.119,5.6,7.55,4.92,8.92,7.526c1.45,2.759,2.579,11.291,2.559,11.745c-0.128,2.853-6.355,4.215-6.382,4.221    c-0.008,0.002-0.016,0.003-0.025,0.005l0.023-0.005l-0.001,0l0.006-0.001l8.481-1.621l-8.215,1.57l0.116,0.608L72,83.688    L71.884,83.08z"/></g></g>
</svg>